<mxfile>
  <diagram name="Datamart ROI">
    <mxGraphModel>
      <root>
        <mxCell id="0" />
        <mxCell id="1" parent="0" />
        <mxCell id="2" value="Hechos_ROI" style="shape=cylinder;whiteSpace=wrap;html=1;boundedLbl=1;backgroundOutline=1;size=15;" vertex="1" parent="1">
          <mxGeometry x="160" y="120" width="120" height="60" as="geometry" />
        </mxCell>
        <mxCell id="3" value="Dim_Inversiones" style="rounded=1;whiteSpace=wrap;html=1;" vertex="1" parent="1">
          <mxGeometry x="40" y="240" width="120" height="60" as="geometry" />
        </mxCell>
        <mxCell id="4" value="Dim_Tipos_Inversion" style="rounded=1;whiteSpace=wrap;html=1;" vertex="1" parent="1">
          <mxGeometry x="200" y="240" width="120" height="60" as="geometry" />
        </mxCell>
        <mxCell id="5" value="Dim_Riesgos" style="rounded=1;whiteSpace=wrap;html=1;" vertex="1" parent="1">
          <mxGeometry x="360" y="240" width="120" height="60" as="geometry" />
        </mxCell>
        <mxCell id="6" value="Dim_Usuarios" style="rounded=1;whiteSpace=wrap;html=1;" vertex="1" parent="1">
          <mxGeometry x="520" y="240" width="120" height="60" as="geometry" />
        </mxCell>
        <mxCell id="7" value="" edge="1" parent="1" source="3" target="2">
          <mxGeometry relative="1" as="geometry" />
        </mxCell>
        <mxCell id="8" value="" edge="1" parent="1" source="4" target="2">
          <mxGeometry relative="1" as="geometry" />
        </mxCell>
        <mxCell id="9" value="" edge="1" parent="1" source="5" target="2">
          <mxGeometry relative="1" as="geometry" />
        </mxCell>
        <mxCell id="10" value="" edge="1" parent="1" source="6" target="2">
          <mxGeometry relative="1" as="geometry" />
        </mxCell>
      </root>
    </mxGraphModel>
  </diagram>
</mxfile>